<?xml version="1.0" encoding="UTF-8"?>
<!DOCTYPE svg PUBLIC "-//W3C//DTD SVG 1.0//EN" "http://www.w3.org/TR/2001/REC-SVG-20010904/DTD/svg10.dtd">
<!-- Creator: CorelDRAW 2019 (64-Bit) -->
<svg xmlns="http://www.w3.org/2000/svg" xml:space="preserve" width="387px" height="387px" version="1.0" style="shape-rendering:geometricPrecision; text-rendering:geometricPrecision; image-rendering:optimizeQuality; fill-rule:evenodd; clip-rule:evenodd"
viewBox="0 0 174.33 174.33"
 xmlns:xlink="http://www.w3.org/1999/xlink"
 xmlns:xodm="http://www.corel.com/coreldraw/odm/2003">
 <defs>
  <style type="text/css">
   <![CDATA[
    .fil1 {fill:#FEFEFE}
    .fil0 {fill:url(#id0)}
   ]]>
  </style>
  <linearGradient id="id0" gradientUnits="userSpaceOnUse" x1="55" y1="175.81" x2="134.54" y2="44.02">
   <stop offset="0" style="stop-opacity:1; stop-color:#4EAE3D"/>
   <stop offset="1" style="stop-opacity:1; stop-color:#F8DD5E"/>
  </linearGradient>
 </defs>
 <g id="Слой_x0020_1">
  <metadata id="CorelCorpID_0Corel-Layer"/>
  <circle class="fil0" cx="87.16" cy="87.16" r="87.16"/>
  <g id="_3167476382016">
   <g>
    <path class="fil1" d="M78.84 155.4c-8.03,-9.46 3.08,-31.88 9.89,-41.64 1.57,-2.24 6.54,-9.44 8.64,-10.4 1.34,15.2 -6.24,51.08 -18.53,52.04zm23.64 -75.58c4,-0.35 3.33,-2.48 4.7,-6.53 4.9,-14.48 26.01,-41.97 39.03,-37.31 1.15,10.7 -26.28,34.03 -34.63,43.55 -3.06,3.5 -8.71,11 -11.91,13.08 -1.65,-3.39 -3.17,-9.84 -4.79,-13.66 -6.62,-15.58 -22.55,-35.95 -40.98,-21.6 -1.54,1.2 -3.54,3.05 -4.82,4.57 -1.83,2.18 -1.51,3.09 -3.88,4.53 -5.1,3.08 -23.77,4.49 -25.7,9.58 3.4,2.77 15.81,-3.08 20.87,-4.17 7.91,-1.7 16.35,0.68 19.96,5.17 6.7,8.33 3.22,23.44 14.04,32.78 2.08,1.8 1.19,1.82 4.56,1.63 0.42,-4.4 -0.29,-2.75 -3.34,-5.68 -11.67,-11.19 -1.15,-33.68 -25.76,-37.7 5.48,-13.08 21.01,-16.48 31.11,-4.19 5.98,7.26 15.29,21.66 15.31,33.71 -1.04,3.7 -24.88,26.22 -23.51,50.52 0.29,5.28 2.05,10.91 7.25,10.92 12.43,0.02 21.71,-34.97 21.27,-51.12 -0.25,-9.35 -2.64,-7.65 2.95,-14.21l35.18 -37.83c3.08,-3.82 16.52,-17.84 7.96,-23.13 -14.9,-9.22 -48.88,36.33 -44.87,47.09z"/>
   </g>
   <circle class="fil1" cx="64.31" cy="61.73" r="3.02"/>
  </g>
 </g>
</svg>
