<?xml version="1.0" encoding="UTF-8"?> <!-- Creator: CorelDRAW 2019 (64-Bit) --> <svg xmlns="http://www.w3.org/2000/svg" xmlns:xlink="http://www.w3.org/1999/xlink" xmlns:xodm="http://www.corel.com/coreldraw/odm/2003" xml:space="preserve" width="2228px" height="705px" style="shape-rendering:geometricPrecision; text-rendering:geometricPrecision; image-rendering:optimizeQuality; fill-rule:evenodd; clip-rule:evenodd" viewBox="0 0 2227.87 705.42"> <defs> <style type="text/css"> <![CDATA[ .fil1 {fill:#FEFEFE} .fil0 {fill:#FEFEFE;fill-rule:nonzero} ]]> </style> </defs> <g id="Слой_x0020_1"> <metadata id="CorelCorpID_0Corel-Layer"></metadata> <g id="_3131086982736"> <path class="fil0" d="M0 458.51c0,-19.2 3.29,-37.16 9.87,-53.82 6.52,-16.67 15.91,-31.13 28.12,-43.48 12.2,-12.34 26.6,-21.8 43.26,-28.45 16.66,-6.65 34.83,-10.01 54.44,-10.01 10.77,0 22.42,1.37 35.11,4.04 12.62,2.75 23.59,7.27 32.84,13.65 9.33,6.31 13.92,14.6 13.92,24.68 0,8.51 -2.05,15.57 -6.31,21.19 -4.18,5.62 -10.28,8.43 -18.3,8.43 -4.87,0 -12.69,-2.05 -23.45,-6.1 -11.66,-4.73 -22.36,-7.06 -32.02,-7.06 -15.84,0 -28.94,3.7 -39.43,11.17 -10.49,7.48 -18.31,17.56 -23.38,30.17 -5.08,12.69 -7.61,26.88 -7.61,42.58 0,31.48 7.82,54.51 23.52,69.12 12.27,11.52 27.77,17.28 46.49,17.28 10.21,0 18.58,-1.37 24.95,-4.12l18.58 -8.63c5.01,-1.92 9.12,-2.95 12.35,-2.95 8.43,0 15.08,2.95 19.88,8.84 4.87,5.9 7.27,12.82 7.27,20.78 0,11.86 -6.45,21.6 -19.41,29.27 -17.34,10.43 -39.7,15.64 -66.99,15.64 -17.14,0 -33.73,-3.02 -49.71,-9.12 -16.04,-6.03 -30.03,-14.81 -42.1,-26.33 -27.9,-26.54 -41.89,-65.41 -41.89,-116.77z"></path> <path id="1" class="fil0" d="M245.61 499.72c0,-14.33 2.26,-28.11 6.78,-41.28 4.53,-13.1 11.32,-24.61 20.37,-34.49 9.46,-10.28 20.77,-18.37 33.73,-24.2 13.03,-5.83 26.47,-8.71 40.39,-8.71 13.64,0 27.08,2.95 40.25,8.78 13.16,5.89 24.48,13.92 33.73,24.13 9.05,10.01 15.77,21.46 20.16,34.49 4.39,12.96 6.58,26.74 6.58,41.28 0,14.26 -2.19,27.84 -6.58,40.73 -4.39,12.82 -11.11,24.34 -20.16,34.49 -9.18,10.21 -20.36,18.24 -33.46,24.13 -13.09,5.83 -26.46,8.78 -40.11,8.78 -14.06,0 -27.63,-2.88 -40.73,-8.71 -13.16,-5.83 -24.48,-13.92 -33.8,-24.2 -18.1,-19.27 -27.15,-44.3 -27.15,-75.22zm59.65 -0.07c0,8.16 1.58,16.25 4.66,24.34 3.16,8.02 7.75,14.61 13.85,19.75 6.17,5.14 13.44,7.75 21.81,7.75 8.77,0 16.38,-2.54 22.83,-7.61 6.44,-5.15 11.38,-11.66 14.81,-19.75 3.43,-8.02 5.14,-16.18 5.14,-24.48 0,-8.37 -1.71,-16.66 -5.07,-24.75 -3.36,-8.16 -8.3,-14.74 -14.81,-19.89 -6.52,-5.07 -14.13,-7.61 -22.9,-7.61 -12.62,0 -22.49,5.42 -29.62,16.25 -7.13,10.77 -10.7,22.77 -10.7,36z"></path> <path id="2" class="fil0" d="M545.45 335.43l0 237.45c0,9.6 -2.67,17.69 -8.09,24.07 -5.42,6.44 -12.82,9.66 -22.35,9.66 -9.19,0 -16.46,-3.29 -21.88,-9.8 -5.41,-6.51 -8.16,-14.54 -8.16,-23.93l0 -237.45c0,-5.96 1.17,-11.52 3.5,-16.66 2.33,-5.21 5.83,-9.26 10.42,-12.2 4.6,-2.95 9.94,-4.39 16.12,-4.39 9.39,0 16.79,3.15 22.28,9.53 5.42,6.38 8.16,14.26 8.16,23.72z"></path> <path id="3" class="fil0" d="M593.17 337.56c0,-9.6 3.43,-17.9 10.29,-24.89 6.85,-7 15.08,-10.49 24.68,-10.49 6.31,0 12.14,1.58 17.49,4.8 5.34,3.22 9.6,7.54 12.75,12.96 3.15,5.48 4.73,11.31 4.73,17.62 0,9.53 -3.43,17.76 -10.28,24.82 -6.86,7.06 -15.09,10.56 -24.69,10.56 -9.6,0 -17.83,-3.5 -24.68,-10.56 -6.86,-7.06 -10.29,-15.29 -10.29,-24.82zm4.12 235.32l0 -146.87c0,-9.46 2.67,-17.42 8.02,-23.79 5.35,-6.38 12.68,-9.53 22.01,-9.53 9.39,0 16.8,3.15 22.28,9.53 5.42,6.37 8.16,14.33 8.16,23.79l0 146.87c0,9.6 -2.67,17.69 -8.09,24.07 -5.35,6.44 -12.82,9.66 -22.35,9.66 -9.19,0 -16.46,-3.29 -21.87,-9.8 -5.42,-6.51 -8.16,-14.54 -8.16,-23.93z"></path> <path id="4" class="fil0" d="M771.24 408.66c16.05,-11.72 31.82,-17.62 47.31,-17.62 13.24,0 25.71,2.81 37.3,8.5 11.66,5.69 21.81,13.51 30.45,23.45 8.7,9.88 15.42,21.12 20.15,33.67 4.74,12.55 7.14,25.37 7.14,38.53 0,36.76 -10.56,65.69 -31.68,86.74 -16.87,17.28 -37.3,25.92 -61.37,25.92 -21.39,0 -38.12,-7.96 -50.19,-23.93 -6.24,15.15 -15.57,22.69 -27.91,22.69 -9.39,0 -17,-3.01 -22.9,-9.11 -5.83,-6.04 -8.77,-13.72 -8.77,-23.04l0 -239.03c0,-5.96 1.16,-11.52 3.49,-16.66 2.33,-5.21 5.83,-9.26 10.42,-12.2 4.6,-2.95 9.95,-4.39 16.12,-4.39 9.39,0 16.8,3.15 22.28,9.53 5.42,6.38 8.16,14.26 8.16,23.72l0 73.23zm-0.41 90.99c0,13.37 3.77,25.37 11.31,35.93 7.54,10.63 17.76,15.91 30.58,15.91 8.57,0 15.98,-2.54 22.08,-7.68 6.17,-5.15 10.84,-11.73 13.99,-19.82 3.15,-8.02 4.73,-16.18 4.73,-24.34 0,-13.23 -3.63,-25.3 -10.83,-36.07 -7.27,-10.76 -17.21,-16.18 -29.97,-16.18 -8.84,0 -16.38,2.54 -22.76,7.61 -6.31,5.15 -11.11,11.66 -14.33,19.68 -3.16,8.02 -4.8,16.32 -4.8,24.96z"></path> <path id="5" class="fil0" d="M1011.09 414.08c14.47,-15.09 28.04,-22.63 40.66,-22.63 8.71,0 16.18,2.81 22.42,8.37 6.24,5.55 9.32,12.48 9.32,20.84 0,8.78 -2.46,15.09 -7.54,18.86 -5.07,3.84 -12.82,7.4 -23.38,10.76 -14.74,4.94 -25.44,10.08 -32.02,15.29 -6.31,4.94 -9.46,13.17 -9.46,24.69l0 82.62c0,9.67 -2.68,17.69 -8.09,24.07 -5.42,6.44 -12.83,9.66 -22.36,9.66 -9.18,0 -16.45,-3.29 -21.87,-9.8 -5.42,-6.51 -8.16,-14.54 -8.16,-23.93l0 -145.64c0,-10.9 2.47,-18.99 7.34,-24.34 6.03,-6.79 13.3,-10.21 21.8,-10.21 14.13,0 24.55,7.13 31.34,21.39z"></path> <path id="6" class="fil0" d="M1113.12 337.56c0,-9.6 3.42,-17.9 10.28,-24.89 6.86,-7 15.08,-10.49 24.68,-10.49 6.31,0 12.14,1.58 17.49,4.8 5.35,3.22 9.6,7.54 12.75,12.96 3.16,5.48 4.73,11.31 4.73,17.62 0,9.53 -3.43,17.76 -10.28,24.82 -6.86,7.06 -15.09,10.56 -24.69,10.56 -9.6,0 -17.82,-3.5 -24.68,-10.56 -6.86,-7.06 -10.28,-15.29 -10.28,-24.82zm4.11 235.32l0 -146.87c0,-9.46 2.67,-17.42 8.02,-23.79 5.35,-6.38 12.69,-9.53 22.01,-9.53 9.39,0 16.8,3.15 22.29,9.53 5.41,6.37 8.15,14.33 8.15,23.79l0 146.87c0,9.6 -2.67,17.69 -8.09,24.07 -5.34,6.44 -12.82,9.66 -22.35,9.66 -9.19,0 -16.46,-3.29 -21.87,-9.8 -5.42,-6.51 -8.16,-14.54 -8.16,-23.93z"></path> <path id="7" class="fil0" d="M1642.11 437.53l0 135.35c0,9.94 -2.74,18.24 -8.3,24.96 -5.48,6.65 -13.16,10.01 -23.04,10.01 -9.66,0 -17.41,-3.36 -23.1,-10.08 -5.69,-6.72 -8.5,-15.02 -8.5,-24.89l0 -215.09c0,-9.26 2.88,-17.01 8.63,-23.25 5.76,-6.24 13.17,-9.32 22.15,-9.32 10.42,0 19.2,4.66 26.33,13.98l121.43 152.63 0 -131.64c0,-9.88 2.81,-18.17 8.44,-24.89 5.62,-6.72 13.37,-10.08 23.24,-10.08 9.67,0 17.28,3.36 22.9,10.01 5.56,6.72 8.37,15.01 8.37,24.96l0 211.52c0,11.73 -2.75,20.57 -8.23,26.68 -6.31,6.31 -13.3,9.46 -21.05,9.46 -10.83,0 -19.2,-3.98 -25.03,-11.93l-124.24 -158.39z"></path> <path id="8" class="fil0" d="M1924.33 519.4c4.18,12.07 10.22,20.84 18.03,26.26 8.44,6.38 17.9,9.53 28.46,9.53 11.72,0 23.11,-2.74 34.14,-8.23l17.21 -8.64c2.88,-1.44 6.79,-2.4 11.59,-2.88 4.25,0 8.44,1.1 12.55,3.43 4.05,2.26 7.34,5.35 9.74,9.19 2.4,3.91 3.63,7.95 3.63,12.07 0,11.31 -8.09,21.6 -24.34,30.85 -19.75,11.25 -42.37,16.87 -67.88,16.87 -16.73,0 -32.5,-3.29 -47.45,-9.88 -14.88,-6.51 -27.56,-16.11 -38.05,-28.79 -15.09,-18.24 -22.63,-41.9 -22.63,-70.76 0,-19.34 4.59,-37.17 13.71,-53.62 9.12,-16.53 21.67,-29.56 37.65,-39.22 15.97,-9.67 33.52,-14.54 52.66,-14.54 18.37,0 35.17,4.53 50.53,13.65 15.29,9.11 27.36,21.46 36.06,36.95 8.71,15.57 13.03,32.3 13.03,50.26 0,9.53 -1.99,16.53 -5.96,20.92 -3.98,4.38 -10.63,6.58 -19.96,6.58l-112.72 0zm79.4 -41.14c-6.44,-25.24 -20.16,-37.85 -41.14,-37.85 -18.58,0 -32.02,12.61 -40.32,37.85l81.46 0z"></path> <path id="9" class="fil0" d="M2180.22 450.28l0 122.6c0,9.74 -2.67,17.76 -8.02,24.14 -5.35,6.37 -12.69,9.59 -22.01,9.59 -9.33,0 -16.73,-3.29 -22.22,-9.8 -5.48,-6.51 -8.22,-14.47 -8.22,-23.93l0 -122.6c-15.16,0 -25.31,-3.01 -30.45,-9.05 -4.66,-5.07 -6.99,-11.24 -6.99,-18.44 0,-4.53 1.23,-9.05 3.77,-13.65 2.54,-4.66 5.83,-7.95 9.87,-9.87 4.87,-2.47 12.82,-3.7 23.8,-3.7l0 -37.78c0,-9.6 2.74,-17.63 8.15,-24.07 5.42,-6.52 12.83,-9.74 22.29,-9.74 9.25,0 16.52,3.22 21.94,9.67 5.42,6.45 8.09,14.47 8.09,24.14l0 37.78 17.28 0c8.64,0 15.84,2.4 21.67,7.2 5.82,4.86 8.7,11.51 8.7,20.02 0,8.43 -2.94,15.08 -8.77,20.09 -5.83,4.93 -13.03,7.4 -21.6,7.4l-17.28 0z"></path> <g> <g> <path class="fil1" d="M1316.42 685.42c-44.42,-52.35 17.05,-176.38 54.75,-230.4 8.65,-12.39 36.16,-52.2 47.77,-57.5 7.4,84.06 -34.52,282.58 -102.52,287.9zm130.79 -418.15c22.13,-1.91 18.44,-13.68 26.01,-36.08 27.08,-80.11 143.91,-232.22 215.94,-206.41 6.31,59.17 -145.4,188.24 -191.58,240.93 -16.94,19.32 -48.22,60.85 -65.89,72.36 -9.15,-18.8 -17.52,-54.43 -26.5,-75.58 -36.63,-86.22 -124.75,-198.88 -226.7,-119.51 -8.56,6.67 -19.61,16.88 -26.66,25.26 -10.16,12.09 -8.4,17.14 -21.5,25.07 -28.22,17.07 -131.48,24.85 -142.15,53.02 18.82,15.33 87.44,-17.03 115.47,-23.06 43.73,-9.39 90.41,3.76 110.4,28.61 37.06,46.08 17.84,129.64 77.66,181.32 11.54,9.98 6.59,10.09 25.24,9.02 2.31,-24.36 -1.6,-15.24 -18.47,-31.43 -64.59,-61.93 -6.37,-186.33 -142.5,-208.56 30.28,-72.35 116.22,-91.14 172.1,-23.19 33.05,40.17 84.55,119.82 84.71,186.48 -5.78,20.48 -137.68,145.07 -130.1,279.47 1.64,29.22 11.33,60.38 40.11,60.43 68.79,0.11 120.11,-193.44 117.69,-282.8 -1.4,-51.71 -14.61,-42.31 16.28,-78.61l194.66 -209.25c17.03,-21.15 91.39,-98.7 44.03,-127.99 -82.46,-51 -270.43,201.01 -248.25,260.5z"></path> </g> <circle class="fil1" cx="1236.08" cy="167.22" r="16.72"></circle> </g> </g> </g> </svg> 